#!OML:ASF E:/inclinewalkrobotboard/Project1/Captureday1/Session1/subject1.ASF
:FULLY-SPECIFIED
:DEGREES
251
root 0 0 0 -1.403407375449099 21.447860019887482 8.587395335864896
lowerback -4.035016322686644 -6.062861117374082 -6.360542594929312
upperback -8.395131202028486 -7.507838384197761 6.982343260317224
thorax -6.088509041364909 -2.6192269525905045 10.969751735168893
lowerneck -5.596441744441062 -8.876931049778163 -7.6719173855790865
upperneck 32.22245878400834 -11.46269141751823 1.8772465449871956
head 12.137149923779768 -5.835239200224953 0.36887276768017185
rclavicle -3.758191904763234E-15 -2.4520602301212347E-15
rhumerus -18.944198772562466 -26.937869708543175 -16.66213803900787
rradius 62.38583746391363
rwrist -12.239773503849996
rhand -26.618894146335325 32.3776611137501
rfingers 7.1250199999999655
rthumb -0.03446908420246686 1.6034641513283425
lclavicle 1.3445347345029326E-16 -3.883353078651404E-15
lhumerus 22.498731708629617 3.479271204815289 42.2071943766499
lradius 63.79478323007112
lwrist -7.094797010273509
lhand -14.132415813413598 7.455450302680671
lfingers 7.1250199999999655
lthumb 11.841096063360316 35.61510193073381
rfemur 139.1796359157882 -155.00800682380205 -120.50541899811934
rtibia 28.483314974313842
rfoot -13.818680521142841 -49.85448074203855
rtoes 4.638079513039333
lfemur -82.06942372229669 24.02287995095128 -57.034347322399015
ltibia 68.31109987057374
lfoot 12.449067805761164 31.955341463742272
ltoes 0.09518364132203416
252
root 0 0 0 -1.403388136510742 21.44773520879377 8.58737853215291
lowerback -4.035016921543736 -6.062858795060762 -6.360534529069796
upperback -8.395127816795014 -7.507836498173729 6.98233984129422
thorax -6.088505704490525 -2.6192271328644665 10.969744030458273
lowerneck -5.596446652258552 -8.876920514723869 -7.67190719625081
upperneck 32.22246310211528 -11.462682241645746 1.8772586350040474
head 12.137152730527353 -5.835233165008108 0.3688764598295514
rclavicle -3.758071049018735E-15 -2.4519770047407754E-15
rhumerus -18.944084939216182 -26.93786246374791 -16.66220769756501
rradius 62.38590889661084
rwrist -12.239881813333298
rhand -26.61889654813295 32.377674707211995
rfingers 7.1250199999999655
rthumb -0.034471747855366885 1.6034804613520528
lclavicle 1.3478537696670748E-16 -3.8832621619135804E-15
lhumerus 22.49783885354333 3.478484928337836 42.208261710796414
lradius 63.795002000678906
lwrist -7.09395388710308
lhand -14.132181960590902 7.4555403169670775
lfingers 7.1250199999999655
lthumb 11.841315005627196 35.61510332365988
rfemur 139.18093586885152 -155.00956749998437 -120.50669401052988
rtibia 28.483277780933356
rfoot -13.819216816384678 -49.854074514209344
rtoes 4.6379268897011166
lfemur -82.06960652360857 24.02292393082525 -57.034346359064926
ltibia 68.3110664338339
lfoot 12.449166154994256 31.95541350377891
ltoes 0.09529069500610277
253
root 0 0 0 -1.403372153811901 21.447633911173757 8.587365287296889
lowerback -4.035017769693849 -6.062856956369345 -6.360528333060134
upperback -8.395125332400726 -7.507835029726724 6.9823370374208515
thorax -6.088503088843508 -2.6192272696984835 10.969737941978732
lowerneck -5.596450483451033 -8.876911979892247 -7.6718989441181265
upperneck 32.22246667517419 -11.46267482215398 1.8772684630262777
head 12.13715500078089 -5.835228276811815 0.36887946300475827
rclavicle -3.7579736846666076E-15 -2.45190981895106E-15
rhumerus -18.943992338945698 -26.93785663646258 -16.662263237031084
rradius 62.38596676082208
rwrist -12.239968912835764
rhand -26.61889847747594 32.37768560547763
rfingers 7.1250199999999655
rthumb -0.03447388732655199 1.6034935466967646
lclavicle 1.3504951348526115E-16 -3.883188504177358E-15
lhumerus 22.497134365059463 3.4778633300835096 42.20910424695532
lradius 63.79517494908052
lwrist -7.093287778348913
lhand -14.13199619118359 7.455611515959564
lfingers 7.1250199999999655
lthumb 11.841488950758698 35.61510429578006
rfemur 139.18202268505024 -155.01086619497113 -120.50775887898172
rtibia 28.483248827885994
rfoot -13.819649568954764 -49.85375350204782
rtoes 4.637803438348637
lfemur -82.0697565172249 24.02296010068612 -57.03434879735052
ltibia 68.31103709667254
lfoot 12.449243956266475 31.955475285269877
ltoes 0.09537878450669623
254
root 0 0 0 -1.4033589149866792 21.447551732583495 8.587354809417443
lowerback -4.035018711717086 -6.06285549709367 -6.360523550547646
upperback -8.395123505481644 -7.507833882389875 6.982334742066543
thorax -6.0885010355995375 -2.619227374586849 10.969733116676128
lowerneck -5.596453487415125 -8.876905066741914 -7.671892262853441
upperneck 32.22246962129035 -11.462668822543476 1.8772764465566827
head 12.137156837494581 -5.835224318260111 0.36888190402151577
rclavicle -3.757895273013079E-15 -2.4518555896164874E-15
rhumerus -18.943917125830083 -26.93785200052702 -16.662307455937423
rradius 62.38601364361334
rwrist -12.24003898907629
rhand -26.61890003405644 32.37769435814825
rfingers 7.1250199999999655
rthumb -0.034475612952576284 1.6035040591283618
lclavicle 1.3526002455430005E-16 -3.883128933469001E-15
lhumerus 22.49657690232833 3.4773706778302076 42.20977103330776
lradius 63.795312044008405
lwrist -7.0927602345302985
lhand -14.131848373853526 7.455667958291148
lfingers 7.1250199999999655
lthumb 11.841627372834749 35.61510496976545
rfemur 139.182925660864 -155.01194090912708 -120.50864283628607
rtibia 28.48322633871333
rfoot -13.819998154729205 -49.853499736510685
rtoes 4.637703806487547
lfemur -82.0698792207431 24.022989755101403 -57.034352984084904
ltibia 68.31101174575858
lfoot 12.449305494705282 31.955527675720194
ltoes 0.09545107891086246
255
root 0 0 0 -1.403347983329482 21.447485108577563 8.58734650018342
lowerback -4.035019654513816 -6.062854336860722 -6.36051984475981
upperback -8.395122159514486 -7.507832983298222 6.982332866427866
thorax -6.088499421622107 -2.6192274554556594 10.969729284477513
lowerneck -5.596455850306554 -8.876899469419287 -7.671886855775818
upperneck 32.22247204259948 -11.462663971849468 1.8772829256887855
head 12.137158322927514 -5.835221113755383 0.36888388617134504
rclavicle -3.757832154082481E-15 -2.4518118357569952E-15
rhumerus -18.94385613201367 -26.937848340168387 -16.662342632629468
rradius 62.38605161555035
rwrist -12.240095376494736
rhand -26.61890129323976 32.37770139520407
rfingers 7.1250199999999655
rthumb -0.03447700832490597 1.6035125112762643
lclavicle 1.354279808473464E-16 -3.883080830653981E-15
lhumerus 22.496134796114475 3.476979418185592 42.21029980245779
lradius 63.795420952722154
lwrist -7.092341599989342
lhand -14.131730562556674 7.45571278810753
lfingers 7.1250199999999655
lthumb 11.841737705418725 35.61510543150331
rfemur 139.18367189809823 -155.0128260566188 -120.5093728019719
rtibia 28.48320888383072
rfoot -13.820278564472366 -49.853299004866244
rtoes 4.6376235382150135
lfemur -82.0699793309157 24.023013995007325 -57.03435790427977
ltibia 68.31099009252253
lfoot 12.449354183716839 31.95557171064504
ltoes 0.09551025371856348
